HIERARCHY
ROOT Hips
{
  OFFSET 267.745 86.9975 -272.335
  CHANNELS 6 Xposition Yposition Zposition Zrotation Xrotation Yrotation
  JOINT LeftUpLeg
  {
    OFFSET 8.64259 1.95398 -2.38835
    CHANNELS 3 Zrotation Xrotation Yrotation
    JOINT LeftLeg
    {
      OFFSET 43.7702 0 0
      CHANNELS 3 Zrotation Xrotation Yrotation
      JOINT LeftFoot
      {
        OFFSET 40.6238 0 0
        CHANNELS 3 Zrotation Xrotation Yrotation
        JOINT LeftToeBase
        {
          OFFSET 12.7242 0 0
          CHANNELS 3 Zrotation Xrotation Yrotation
          End Site
          {
            OFFSET 0 0 0
          }
        }
      }
    }
  }
  JOINT RightUpLeg
  {
    OFFSET -8.2249 1.95398 -2.59336
    CHANNELS 3 Zrotation Xrotation Yrotation
    JOINT RightLeg
    {
      OFFSET 43.5653 0 0
      CHANNELS 3 Zrotation Xrotation Yrotation
      JOINT RightFoot
      {
        OFFSET 40.6238 0 0
        CHANNELS 3 Zrotation Xrotation Yrotation
        JOINT RightToeBase
        {
          OFFSET 12.7242 0 0
          CHANNELS 3 Zrotation Xrotation Yrotation
          End Site
          {
            OFFSET 0 0 0
          }
        }
      }
    }
  }
  JOINT Spine
  {
    OFFSET 0.165834 0.87714 6.61349
    CHANNELS 3 Zrotation Xrotation Yrotation
    JOINT Spine1
    {
      OFFSET 7.38963 1.71661e-005 0
      CHANNELS 3 Zrotation Xrotation Yrotation
      JOINT Spine2
      {
        OFFSET 11.9445 1.14441e-005 0
        CHANNELS 3 Zrotation Xrotation Yrotation
        JOINT Spine3
        {
          OFFSET 14.7254 4.19617e-005 0
          CHANNELS 3 Zrotation Xrotation Yrotation
          JOINT Spine4
          {
            OFFSET 10.9679 0 0
            CHANNELS 3 Zrotation Xrotation Yrotation
            JOINT RightShoulder
            {
              OFFSET 2.46616 -1.6653 3.69651
              CHANNELS 3 Zrotation Xrotation Yrotation
              JOINT RightArm
              {
                OFFSET 13.0012 0 0
                CHANNELS 3 Zrotation Xrotation Yrotation
                JOINT RightForeArm
                {
                  OFFSET 28.7848 1.52588e-005 0
                  CHANNELS 3 Zrotation Xrotation Yrotation
                  JOINT RightHand
                  {
                    OFFSET 26.5688 1.52588e-005 0
                    CHANNELS 3 Zrotation Xrotation Yrotation
                    End Site
                    {
                      OFFSET 0 0 0
                    }
                  }
                }
              }
            }
            JOINT LeftShoulder
            {
              OFFSET 2.38034 -1.29275 -3.7523
              CHANNELS 3 Zrotation Xrotation Yrotation
              JOINT LeftArm
              {
                OFFSET 16.3182 6.10352e-005 0
                CHANNELS 3 Zrotation Xrotation Yrotation
                JOINT LeftForeArm
                {
                  OFFSET 27.0901 0 0
                  CHANNELS 3 Zrotation Xrotation Yrotation
                  JOINT LeftHand
                  {
                    OFFSET 24.5451 1.52588e-005 0
                    CHANNELS 3 Zrotation Xrotation Yrotation
                    End Site
                    {
                      OFFSET 0 0 0
                    }
                  }
                }
              }
            }
            JOINT Neck
            {
              OFFSET 5.0226 -0.0266342 0
              CHANNELS 3 Zrotation Xrotation Yrotation
              JOINT Head
              {
                OFFSET 6.69364 2.86102e-005 0
                CHANNELS 3 Zrotation Xrotation Yrotation
                End Site
                {
                  OFFSET 0 0 0
                }
              }
            }
          }
        }
      }
    }
  }
}
MOTION
Frames:	7
Frame Time:	0.0416667
46.7933 18.5922 27.2589 -9.97606 -43.376 -100.497 -94.9968 79.0513 24.939 -108.656 -8.31452 4.26448 70.9923 12.3795 12.6292 34.1684 -1.90705 18.842 153.014 3.43231 68.6892 -42.9726 33.5985 19.7082 83.3999 -5.26815 17.7127 76.8462 -13.4365 -3.46344 -2.61129 8.41369 -86.5245 10.1123 -3.62111 7.20192 -1.57436 -3.3015 7.35329 -24.0377 -5.61485 5.7872 -4.02504 -5.61485 5.78719 103.304 -3.73305 -78.0096 -16.1443 69.858 18.168 -18.99 2.47269 -147.222 -27.0741 -5.42812 17.6027 -82.0813 -30.9253 88.5832 32.8706 20.2363 -46.7137 -19.7457 8.57852 -136.154 -4.2491 0.337504 -30.0637 31.5215 -19.0417 -6.34454 -5.97005 -15.3774 -13.8659 
45.9355 19.3051 25.5237 -9.35711 -34.6677 -98.4377 -97.4574 78.9246 37.3652 -106.607 -9.2205 4.27179 74.2471 14.1648 12.8355 32.8144 -1.8956 17.7399 160.517 4.38577 72.9477 -36.7395 22.2719 6.14326 82.1109 -3.88777 21.5974 68.0901 -9.32778 1.79838 -1.23014 8.53138 -87.0558 9.80419 -1.11875 5.93039 -1.87988 -0.857095 5.97367 -24.3285 -2.84707 5.32298 -4.31582 -2.84704 5.32298 104.377 0.256382 -73.1276 -0.0597782 65.7183 6.29643 -21.7989 13.4848 -148.62 -20.9959 -4.8545 21.284 -80.3793 -20.9417 90.9693 3.48932 -6.84377 -31.3954 -12.0305 10.3945 -131.091 -31.3014 3.10055 -15.8019 18.3056 -18.8063 -0.333092 7.75674 -20.0544 -20.146 
44.8294 19.9345 25.5779 -6.75724 -30.3236 -95.613 -97.549 79.4944 41.9964 -104.952 -5.19132 3.67715 73.9902 15.1107 15.2234 32.8486 -2.13943 21.0057 164.279 6.52448 75.5041 -34.1267 19.6124 2.91551 75.4096 -1.91834 20.2626 61.7101 -5.56826 12.8224 -0.949311 8.14836 -87.574 10.5703 -0.775863 4.89183 -1.10972 -0.560085 4.92117 -23.5837 -2.20885 4.43412 -3.57103 -2.20885 4.43414 104.905 0.8283 -70.7736 11.9914 61.9688 -9.61134 -22.5183 16.7694 -148.252 -19.6294 -4.62783 21.8713 -77.9856 -9.85989 96.8885 -20.4764 -57.4857 -29.9299 -23.349 31.8891 -121.692 -33.8935 3.46988 -17.8128 25.2598 -17.1327 -0.439058 4.73918 -17.2495 -12.5465 
42.5858 20.8313 27.9795 -5.89575 -29.7463 -94.8654 -115.372 78.7171 58.4385 -104.243 -1.09459 3.19259 75.0185 14.7815 12.5048 31.432 -2.60768 24.7067 166.129 6.23833 75.752 -29.9469 16.036 1.74573 65.1151 0.187222 11.7559 49.1148 -3.60667 14.8332 -1.06227 7.54521 -88.1285 11.7869 -1.23355 3.8595 0.110652 -1.06263 3.90994 -22.3931 -2.33585 3.31134 -2.38047 -2.33585 3.3113 105.744 0.447145 -67.5141 16.6417 41.6813 -25.6448 -27.6481 24.7792 -141.969 -23.1813 -5.19638 20.4522 -77.2739 1.67965 99.0236 -74.2555 -67.0224 -89.2914 -9.92321 21.3974 -115.645 -2.73516 0.424692 -8.78592 25.2748 -13.1935 -0.202583 4.15374 -13.0112 -7.13829 
38.3244 22.7699 31.6567 -4.01027 -28.6281 -95.7133 -135.935 74.4183 75.3831 -100.228 1.0342 2.22724 76.4055 11.9339 1.7684 26.4583 -3.49002 27.2866 168.307 2.05368 73.7752 -13.6319 16.1687 -1.1837 47.8719 9.00015 12.9108 29.0479 -0.848407 9.06681 -1.38178 6.92686 -88.8572 13.0415 -2.1938 2.55479 1.36971 -2.07928 2.6488 -21.1691 -2.86006 1.77743 -1.15653 -2.86004 1.77742 105.747 -0.115524 -67.7939 13.546 28.7178 -35.187 -30.9315 30.86 -137.649 -19.3911 -3.67825 16.7364 -77.3346 8.00284 99.0107 -75.6096 -59.4993 -106.263 0.0674933 12.284 -94.1289 9.42101 -0.619031 -9.48367 32.2355 -6.0229 7.28082 -3.1167 -8.81962 -9.23963 
31.4508 25.6911 35.421 -0.497697 -23.2869 -98.3495 -145.824 65.0555 82.3466 -89.2244 3.50037 0.0985598 76.4777 8.4788 -7.29985 28.0565 -3.91223 32.1461 168.489 4.58807 69.7009 -6.52745 15.9796 -3.3514 47.7033 10.0862 16.6157 3.73233 6.40755 -0.602395 -1.22374 6.62805 -89.3808 13.6343 -2.12624 1.5165 1.96412 -2.05744 1.60862 -20.5826 -2.48367 0.807129 -0.569945 -2.48364 0.807124 106.656 -5.44683 -66.822 5.17157 21.1997 -42.9476 -36.3323 38.4241 -133.623 -19.6049 -3.84697 17.4767 -77.4572 12.386 98.7097 -67.2433 -59.4962 -108.888 3.12749 6.61629 -76.2217 16.1243 -0.889548 -9.29134 49.2635 -1.00553 8.27842 -15.2043 -5.2421 -5.1502 
24.3354 28.4201 40.1417 0.017584 -17.0361 -101.772 -157.145 53.2609 87.5261 -76.4466 4.42319 -1.95793 76.9282 5.9786 -14.1945 24.4617 -4.62765 32.948 162.415 18.8567 60.9282 -23.7876 14.9883 2.13792 56.1403 7.12391 22.9535 43.5378 -3.68213 -2.4731 -0.779749 6.88946 -89.9332 13.0895 -1.5153 0.322353 1.41923 -1.49967 0.388743 -21.1218 -1.54214 -0.148065 -1.10917 -1.54214 -0.14805 108.518 -14.5582 -64.5403 -5.46825 22.0036 -49.8827 -35.5697 39.6658 -134.265 -20.3172 -3.98674 17.5269 -77.9668 15.1889 98.4973 -64.8302 -64.9809 -101.761 16.3988 9.29897 -75.7533 17.5693 -0.881494 -8.87324 73.1629 -1.76138 -1.37045 -35.4097 -3.23699 9.03239 
